<?xml version="1.0" encoding="UTF-8"?>
<!DOCTYPE svg PUBLIC "-//W3C//DTD SVG 1.1//EN" "http://www.w3.org/Graphics/SVG/1.1/DTD/svg11.dtd">
<svg xmlns="http://www.w3.org/2000/svg" xmlns:xlink="http://www.w3.org/1999/xlink" version="1.1" width="640" height="640" viewBox="0 0 640 640" xml:space="preserve">
<desc>Created with Fabric.js 5.3.0</desc>
<defs>
</defs>
<g transform="matrix(1.4724536447 0 0 1.4724536447 333.0660888407 284.4016382321)" id="uIstXUHFoJkum3FToOExV"  >
<g style=""   >
		<g transform="matrix(0.7409523786 0 0 0.7409523786 -4.2031023431 40.7869965546)" id="MmCLraMGkiOlhPQxE6Fy7"  >
<path style="stroke: rgb(248,40,60); stroke-width: 0; stroke-dasharray: none; stroke-linecap: butt; stroke-dashoffset: 0; stroke-linejoin: miter; stroke-miterlimit: 4; fill: rgb(255,243,18); fill-rule: nonzero; opacity: 1;"  transform=" translate(0, 0)" d="M 0 -182.01517 C 100.47237 -182.01517 182.01517 -100.47237000000001 182.01517 0 C 182.01517 100.47237 100.47237000000001 182.01517 0 182.01517 C -100.47237 182.01517 -182.01517 100.47237000000001 -182.01517 0 C -182.01517 -100.47237 -100.47237000000001 -182.01517 0 -182.01517 z" stroke-linecap="round" />
</g>
		<g transform="matrix(0.9910737532 0.1216885556 -0.1216885556 0.9910737532 -42.3570444811 0.6662506394)" id="b7L0etAJELJy_vlnSiESD"  >
<path style="stroke: rgb(227,32,222); stroke-width: 0; stroke-dasharray: none; stroke-linecap: butt; stroke-dashoffset: 0; stroke-linejoin: miter; stroke-miterlimit: 4; fill: rgb(252,134,29); fill-rule: nonzero; opacity: 1;"  transform=" translate(-38.0747224302, -125.567095)" d="M 68.20221 231.40959 C 24.218219999999995 171.59432 18.52980999999999 88.56988000000001 60.24905999999999 21.805090000000007 L 60.24907999999999 21.805060000000008 C 65.09267999999999 14.053690000000008 70.41338999999999 6.780580000000008 76.14944 7.105427357601002e-15 C 3.672299999999993 53.136050000000004 -21.747609999999995 152.53823 20.36524 235.18935 C 23.17604 240.70586 26.22403 246.02283 29.4905 251.13419 z" stroke-linecap="round" />
</g>
		<g transform="matrix(0.0363858571 0.5203419983 -0.5203419983 0.0363858571 -69.1874165664 -137.6486942467)" id="_a977qvbjaSP_niXShvBe"  >
<path style="stroke: rgb(17,216,178); stroke-width: 0; stroke-dasharray: none; stroke-linecap: butt; stroke-dashoffset: 0; stroke-linejoin: miter; stroke-miterlimit: 4; fill: rgb(53,237,53); fill-rule: nonzero; opacity: 1;"  transform=" translate(-55.1214578327, -147.659552442)" d="M 13.06254 262.10348 C -23.62849 161.29573 19.559919999999998 50.77808999999999 110.24292 0 C 102.70305 6.97475 95.57051 14.5734 88.91824 22.78828 L 88.91821999999999 22.78831 C 34.34779999999999 90.17719 27.05885999999999 180.55603 62.82118999999999 253.67723 C 66.87960999999999 258.0991 69.35002999999999 263.94717 69.35002999999999 270.35704 C 69.35002999999999 284.13611 57.93403999999999 295.31912 43.867909999999995 295.31912 C 32.645149999999994 295.31912 23.109409999999993 288.20029 19.712819999999994 278.32391 C 17.299999999999994 273.05336 15.079399999999993 267.64476 13.062549999999995 262.1035 z" stroke-linecap="round" />
</g>
		<g transform="matrix(0.3356369529 0.5371314049 -0.5371314049 0.3356369529 -90.6952261577 -97.5038607994)" id="_MVRSsagUkiSNt2H15JBT"  >
<path style="stroke: rgb(17,216,178); stroke-width: 0; stroke-dasharray: none; stroke-linecap: butt; stroke-dashoffset: 0; stroke-linejoin: miter; stroke-miterlimit: 4; fill: rgb(37,167,37); fill-rule: nonzero; opacity: 1;"  transform=" translate(-55.1214599202, -147.65956)" d="M 13.06254 262.10348 C -23.62849 161.29573 19.559919999999998 50.77808999999999 110.24292 0 C 102.70305 6.97475 95.57051 14.5734 88.91824 22.78828 L 88.91821999999999 22.78831 C 34.34779999999999 90.17719 27.05885999999999 180.55603 62.82118999999999 253.67723 C 66.87960999999999 258.0991 69.35002999999999 263.94717 69.35002999999999 270.35704 C 69.35002999999999 284.13611 57.93403999999999 295.31912 43.867909999999995 295.31912 C 32.645149999999994 295.31912 23.109409999999993 288.20029 19.712819999999994 278.32391 C 17.299999999999994 273.05336 15.079399999999993 267.64476 13.062549999999995 262.1035 z" stroke-linecap="round" />
</g>
		<g transform="matrix(0.2305679112 0.4944544811 0.5553268013 -0.0768229338 76.7633661652 -151.1178034964)" id="6_RfgDsh7vVKGWGgKSL3U"  >
<path style="stroke: rgb(17,216,178); stroke-width: 0; stroke-dasharray: none; stroke-linecap: butt; stroke-dashoffset: 0; stroke-linejoin: miter; stroke-miterlimit: 4; fill: rgb(53,237,53); fill-rule: nonzero; opacity: 1;"  transform=" translate(-55.1214599202, -147.65956)" d="M 13.06254 262.10348 C -23.62849 161.29573 19.559919999999998 50.77808999999999 110.24292 0 C 102.70305 6.97475 95.57051 14.5734 88.91824 22.78828 L 88.91821999999999 22.78831 C 34.34779999999999 90.17719 27.05885999999999 180.55603 62.82118999999999 253.67723 C 66.87960999999999 258.0991 69.35002999999999 263.94717 69.35002999999999 270.35704 C 69.35002999999999 284.13611 57.93403999999999 295.31912 43.867909999999995 295.31912 C 32.645149999999994 295.31912 23.109409999999993 288.20029 19.712819999999994 278.32391 C 17.299999999999994 273.05336 15.079399999999993 267.64476 13.062549999999995 262.1035 z" stroke-linecap="round" />
</g>
		<g transform="matrix(-0.2567610549 0.5652585404 0.4925749662 0.3089016217 92.1527548142 -99.9011792631)" id="r12C7nOA6U7jS7x8riCX-"  >
<path style="stroke: rgb(17,216,178); stroke-width: 0; stroke-dasharray: none; stroke-linecap: butt; stroke-dashoffset: 0; stroke-linejoin: miter; stroke-miterlimit: 4; fill: rgb(37,167,37); fill-rule: nonzero; opacity: 1;"  transform=" translate(-55.1214599202, -147.65956)" d="M 13.06254 262.10348 C -23.62849 161.29573 19.559919999999998 50.77808999999999 110.24292 0 C 102.70305 6.97475 95.57051 14.5734 88.91824 22.78828 L 88.91821999999999 22.78831 C 34.34779999999999 90.17719 27.05885999999999 180.55603 62.82118999999999 253.67723 C 66.87960999999999 258.0991 69.35002999999999 263.94717 69.35002999999999 270.35704 C 69.35002999999999 284.13611 57.93403999999999 295.31912 43.867909999999995 295.31912 C 32.645149999999994 295.31912 23.109409999999993 288.20029 19.712819999999994 278.32391 C 17.299999999999994 273.05336 15.079399999999993 267.64476 13.062549999999995 262.1035 z" stroke-linecap="round" />
</g>
		<g transform="matrix(1.0975435861 0 0 1.1800660651 -10.0478876803 111.2043180539)" id="BPDLvI17atXjLywTSOd1F"  >
<path style="stroke: rgb(245,42,56); stroke-width: 0; stroke-dasharray: none; stroke-linecap: butt; stroke-dashoffset: 0; stroke-linejoin: miter; stroke-miterlimit: 4; fill: rgb(253,202,81); fill-rule: nonzero; opacity: 1;"  transform=" translate(-162.6001273107, -103.9705377651)" d="M 162.60004 207.94108 C 72.92281000000001 207.94108 0.12659999999999627 135.22288 0 45.57509999999999 C 13.68979 67.88941999999999 38.31208 82.78398999999999 66.39203 82.78398999999999 C 98.13492000000001 82.78398999999999 125.45922 63.75007999999999 137.56673 36.48044999999999 C 153.77356 16.69031999999999 185.91166 2.1980099999999894 223.52977 0.22651999999999362 L 223.52978000000002 0.22651999999999362 C 272.51917000000003 -2.340900000000006 314.48536 17.181379999999994 324.80465000000004 45.340869999999995 L 325.20025000000004 45.340869999999995 C 325.20025000000004 45.71415 325.19899000000004 46.087129999999995 325.19647000000003 46.45981999999999 C 325.19773000000004 46.463589999999996 325.19899000000004 46.46735999999999 325.20025000000004 46.471129999999995 L 325.19640000000004 46.471129999999995 C 324.58793000000003 135.70693 251.97830000000005 207.94108 162.60004000000004 207.94108 z" stroke-linecap="round" />
</g>
</g>
</g>
</svg>